<?xml version="1.0" standalone="no"?>
<!DOCTYPE svg PUBLIC "-//W3C//DTD SVG 20010904//EN"
 "http://www.w3.org/TR/2001/REC-SVG-20010904/DTD/svg10.dtd">
<svg version="1.0" xmlns="http://www.w3.org/2000/svg"
 width="24.000000pt" height="7.000000pt" viewBox="0 0 24.000000 7.000000"
 preserveAspectRatio="xMidYMid meet">

<g transform="translate(0.000000,7.000000) scale(0.100000,-0.100000)"
fill="#000000" stroke="none">
<path d="M84 55 c-4 -8 -18 -15 -34 -15 -26 0 -46 -21 -33 -34 8 -8 198 -8
206 0 13 13 -7 34 -33 34 -16 0 -30 7 -34 15 -3 9 -18 15 -36 15 -18 0 -33 -6
-36 -15z m61 -5 c4 -6 -7 -10 -25 -10 -18 0 -29 4 -25 10 3 6 15 10 25 10 10
0 22 -4 25 -10z"/>
</g>
</svg>
